<svg width="383" height="86" viewBox="0 0 383 86" fill="none" xmlns="http://www.w3.org/2000/svg">
<path d="M1.3369e-05 54.0909C1.3369e-05 50.2273 0.837134 46.8466 2.51138 43.9489C4.18562 41.0511 6.37501 38.6364 9.07956 36.7045C11.7841 34.7727 14.875 33.3239 18.3523 32.3579C21.8296 31.392 25.3712 30.9091 28.9773 30.9091C32.5833 30.9091 36.125 31.392 39.6023 32.3579C43.0796 33.3239 46.1705 34.7727 48.875 36.7045C51.5796 38.6364 53.7689 41.0511 55.4432 43.9489C57.1174 46.8466 57.9546 50.2273 57.9546 54.0909H1.3369e-05ZM65.6818 85V54.0909C65.6818 46.6856 63.4113 40.3905 58.8702 35.2055C54.3292 30.0205 47.94 26.3989 39.7027 24.3409L38.6364 15.4545H57.9546V0H65.6818V15.4545H85L78.625 79.3977C78.4318 80.9432 77.7402 82.2633 76.5502 83.3579C75.3602 84.4526 73.9268 85 72.25 85H65.6818ZM1.3369e-05 69.5454V61.8182H57.9546V69.5454H1.3369e-05ZM3.86365 85C2.76895 85 1.85069 84.6291 1.10888 83.8873C0.367059 83.1454 -0.00256239 82.2285 1.3369e-05 81.1364V77.2727H57.9546V81.1364C57.9546 82.231 57.5836 83.1493 56.8418 83.8911C56.1 84.6329 55.183 85.0026 54.0909 85H3.86365Z" fill="white"/>
<path d="M105.736 33.676H80.4104V49.216H101.746V60.052H80.4104V85H67.9364V22.84H105.736V33.676Z" fill="white"/>
<path d="M121.904 38.338C126.216 38.338 129.702 38.926 132.362 40.102C135.022 41.25 136.996 43.154 138.284 45.814C139.572 48.446 140.216 52.016 140.216 56.524V85H130.262L129.338 80.17H128.792C127.728 82.102 126.3 83.53 124.508 84.454C122.744 85.378 120.714 85.84 118.418 85.84C115.898 85.84 113.658 85.308 111.698 84.244C109.766 83.18 108.254 81.654 107.162 79.666C106.098 77.65 105.566 75.312 105.566 72.652C105.566 68.2 106.924 64.756 109.64 62.32C112.356 59.884 116.654 58.456 122.534 58.036L128.33 57.532V55.978C128.33 53.99 128.036 52.436 127.448 51.316C126.888 50.196 125.978 49.398 124.718 48.922C123.458 48.446 121.736 48.208 119.552 48.208C117.9 48.208 116.122 48.348 114.218 48.628C112.342 48.908 110.536 49.314 108.8 49.846V39.976C110.704 39.472 112.832 39.08 115.184 38.8C117.536 38.492 119.776 38.338 121.904 38.338ZM122.66 76.684C123.696 76.684 124.704 76.46 125.684 76.012C126.664 75.564 127.546 74.836 128.33 73.828V64.798L123.962 65.176C121.834 65.344 120.238 65.946 119.174 66.982C118.11 67.99 117.578 69.404 117.578 71.224C117.578 73.016 118.026 74.374 118.922 75.298C119.818 76.222 121.064 76.684 122.66 76.684Z" fill="white"/>
<path d="M159.111 85.882C154.743 85.882 150.767 85.252 147.183 83.992V74.206C150.991 75.494 154.883 76.138 158.859 76.138C163.507 76.138 165.831 74.584 165.831 71.476C165.831 70.328 165.537 69.432 164.949 68.788C164.361 68.144 163.451 67.654 162.219 67.318L156.339 65.89C152.839 65.022 150.207 63.524 148.443 61.396C146.707 59.24 145.839 56.356 145.839 52.744C145.839 49.86 146.553 47.34 147.981 45.184C149.409 43 151.509 41.32 154.281 40.144C157.081 38.94 160.483 38.338 164.487 38.338C168.071 38.338 171.417 38.716 174.525 39.472V49.258C171.501 48.474 168.379 48.082 165.159 48.082C162.275 48.082 160.189 48.516 158.901 49.384C157.641 50.252 157.011 51.372 157.011 52.744C157.011 53.808 157.291 54.648 157.851 55.264C158.439 55.852 159.349 56.314 160.581 56.65L166.461 58.12C170.045 59.016 172.691 60.514 174.399 62.614C176.135 64.686 177.003 67.542 177.003 71.182C177.003 74.206 176.275 76.824 174.819 79.036C173.363 81.22 171.291 82.914 168.603 84.118C165.915 85.294 162.751 85.882 159.111 85.882Z" fill="white"/>
<path d="M203.366 75.298C204.206 75.298 205.606 75.144 207.566 74.836V84.916C206.558 85.196 205.396 85.406 204.08 85.546C202.764 85.714 201.462 85.798 200.174 85.798C195.05 85.798 191.158 84.454 188.498 81.766C185.866 79.078 184.55 74.808 184.55 68.956V48.712H177.914V39.052H184.55L186.776 22.84H196.814V39.052H207.314V48.712H196.814V67.486C196.814 69.474 197.024 71.028 197.444 72.148C197.864 73.268 198.55 74.08 199.502 74.584C200.454 75.06 201.742 75.298 203.366 75.298Z" fill="white"/>
<path d="M253.939 26.284C251.083 26.284 249.011 26.872 247.723 28.048C246.435 29.224 245.791 31.1 245.791 33.676V39.052H256.291V48.712H245.791V85H233.695V48.712H227.059V39.052H233.695V34.432C233.695 28.58 235.235 24.1 238.315 20.992C241.423 17.856 246.043 16.288 252.175 16.288C254.387 16.288 256.319 16.442 257.971 16.75V26.62C256.655 26.396 255.311 26.284 253.939 26.284Z" fill="white"/>
<path d="M277.142 85.882C270.926 85.882 266.166 83.964 262.862 80.128C259.586 76.264 257.948 70.314 257.948 62.278C257.948 46.318 264.346 38.338 277.142 38.338C283.33 38.338 288.076 40.312 291.38 44.26C294.684 48.18 296.336 54.144 296.336 62.152C296.336 77.972 289.938 85.882 277.142 85.882ZM277.142 76.642C278.654 76.642 279.886 76.25 280.838 75.466C281.79 74.682 282.518 73.254 283.022 71.182C283.526 69.082 283.778 66.128 283.778 62.32C283.778 58.428 283.512 55.404 282.98 53.248C282.476 51.092 281.748 49.608 280.796 48.796C279.844 47.956 278.626 47.536 277.142 47.536C275.658 47.536 274.44 47.942 273.488 48.754C272.536 49.566 271.794 51.036 271.262 53.164C270.758 55.292 270.506 58.274 270.506 62.11C270.506 65.974 270.758 68.97 271.262 71.098C271.766 73.198 272.494 74.654 273.446 75.466C274.398 76.25 275.63 76.642 277.142 76.642Z" fill="white"/>
<path d="M320.618 85.882C314.402 85.882 309.642 83.964 306.338 80.128C303.062 76.264 301.424 70.314 301.424 62.278C301.424 46.318 307.822 38.338 320.618 38.338C326.806 38.338 331.552 40.312 334.856 44.26C338.16 48.18 339.812 54.144 339.812 62.152C339.812 77.972 333.414 85.882 320.618 85.882ZM320.618 76.642C322.13 76.642 323.362 76.25 324.314 75.466C325.266 74.682 325.994 73.254 326.498 71.182C327.002 69.082 327.254 66.128 327.254 62.32C327.254 58.428 326.988 55.404 326.456 53.248C325.952 51.092 325.224 49.608 324.272 48.796C323.32 47.956 322.102 47.536 320.618 47.536C319.134 47.536 317.916 47.942 316.964 48.754C316.012 49.566 315.27 51.036 314.738 53.164C314.234 55.292 313.982 58.274 313.982 62.11C313.982 65.974 314.234 68.97 314.738 71.098C315.242 73.198 315.97 74.654 316.922 75.466C317.874 76.25 319.106 76.642 320.618 76.642Z" fill="white"/>
<path d="M360.903 85.882C357.935 85.882 355.247 85.084 352.839 83.488C350.431 81.892 348.499 79.386 347.043 75.97C345.615 72.526 344.901 68.186 344.901 62.95C344.901 54.774 346.777 48.642 350.529 44.554C354.281 40.438 360.077 38.38 367.917 38.38C368.729 38.38 369.513 38.422 370.269 38.506V17.128H382.533V85H372.159L371.319 80.128H370.731C369.807 81.92 368.505 83.334 366.825 84.37C365.173 85.378 363.199 85.882 360.903 85.882ZM364.893 75.508C365.929 75.508 366.937 75.284 367.917 74.836C368.897 74.388 369.681 73.758 370.269 72.946V48.124C369.149 47.928 368.029 47.83 366.909 47.83C364.781 47.83 363.031 48.264 361.659 49.132C360.287 50 359.237 51.47 358.509 53.542C357.809 55.586 357.459 58.358 357.459 61.858C357.459 65.442 357.753 68.242 358.341 70.258C358.957 72.246 359.797 73.618 360.861 74.374C361.953 75.13 363.297 75.508 364.893 75.508Z" fill="white"/>
</svg>
